# xmcd
#
# Track frame offsets:
#	150
#	29957
#	52305
#	70231
#	109165
#	140568
#	178056
#	204319
#	221869
#
# Disc length: 3334 seconds
# Revision: 0
# Processed by: cddbd v1.5.2PL0 Copyright (c) Steve Scherf et al.
# Submitted via: dBpowerAMP V12.0
#
DISCID=990d0409
DTITLE=Luizinho Santos - Encontro dos Ventos
DYEAR=2010
DGENRE=Brazil
TTITLE0=Novo Ano
TTITLE1=Samba Instrumental
TTITLE2=Chorinho
TTITLE3=Encontro dos ventos
TTITLE4=Semba
TTITLE5=Lagoa negra
TTITLE6=Manhã
TTITLE7=Três no Samba
TTITLE8=Chacarera
EXTD=
EXTT0=
EXTT1=
EXTT2=
EXTT3=
EXTT4=
EXTT5=
EXTT6=
EXTT7=
EXTT8=
PLAYORDER=
